<?xml version="1.0" encoding="utf-8"?>
<!-- Generator: Adobe Illustrator 27.9.0, SVG Export Plug-In . SVG Version: 6.00 Build 0)  -->
<svg version="1.1" xmlns="http://www.w3.org/2000/svg" xmlns:xlink="http://www.w3.org/1999/xlink" x="0px" y="0px"
	 viewBox="0 0 500 500" style="enable-background:new 0 0 500 500;" xml:space="preserve">
<style type="text/css">
	.st0{display:none;}
	.st1{display:inline;}
	.st2{opacity:0.55;fill:#FFFFFF;}
	.st3{opacity:0.7;fill:#FFFFFF;}
	.st4{opacity:0.85;fill:#FFFFFF;}
	.st5{fill:#FFFFFF;}
</style>
<g id="Layer_2" class="st0">
	<rect class="st1" width="500" height="500"/>
</g>
<g id="Layer_1">
	<g>
		<path class="st2" d="M101.64,327.1c-5.62,0-11.25-2.11-15.59-6.36c-8.8-8.61-8.95-22.72-0.34-31.51l38.66-39.5l-38.66-39.5
			c-8.61-8.8-8.46-22.91,0.34-31.52c8.8-8.61,22.91-8.45,31.52,0.34l53.91,55.09c8.48,8.66,8.48,22.52,0,31.18l-53.91,55.08
			C113.21,324.86,107.42,327.1,101.64,327.1z"/>
		<path class="st3" d="M182.69,327.1c-5.62,0-11.25-2.11-15.59-6.36c-8.8-8.61-8.95-22.72-0.34-31.51l38.66-39.5l-38.66-39.5
			c-8.61-8.8-8.46-22.91,0.34-31.52c8.8-8.61,22.91-8.45,31.52,0.34l53.91,55.09c8.48,8.66,8.48,22.52,0,31.18l-53.91,55.08
			C194.26,324.86,188.48,327.1,182.69,327.1z"/>
		<path class="st4" d="M263.75,327.1c-5.63,0-11.25-2.11-15.59-6.36c-8.8-8.61-8.95-22.72-0.34-31.51l38.66-39.5l-38.66-39.5
			c-8.61-8.8-8.46-22.91,0.34-31.52c8.79-8.61,22.91-8.46,31.52,0.34l53.92,55.09c8.48,8.66,8.48,22.52,0,31.18l-53.92,55.08
			C275.31,324.86,269.53,327.1,263.75,327.1z"/>
		<path class="st5" d="M344.8,327.1c-5.63,0-11.25-2.11-15.59-6.36c-8.8-8.61-8.95-22.72-0.34-31.51l38.66-39.5l-38.66-39.5
			c-8.61-8.8-8.46-22.91,0.34-31.52c8.78-8.61,22.9-8.46,31.51,0.34l53.92,55.09c8.48,8.66,8.48,22.52,0,31.18l-53.92,55.08
			C356.36,324.86,350.58,327.1,344.8,327.1z"/>
	</g>
</g>
</svg>
